<?xml version="1.0" encoding="utf-8"?>
<!-- Generator: Adobe Illustrator 26.0.1, SVG Export Plug-In . SVG Version: 6.00 Build 0)  -->
<svg version="1.1" id="Camada_1" xmlns="http://www.w3.org/2000/svg" xmlns:xlink="http://www.w3.org/1999/xlink" x="0px" y="0px"
	 viewBox="0 0 313 404" style="enable-background:new 0 0 313 404;" xml:space="preserve">
<style type="text/css">
	.st0{opacity:0.5;fill:url(#SVGID_1_);enable-background:new    ;}
	.st1{opacity:0.5;fill:url(#SVGID_00000122688910093113734730000006868586699345063606_);enable-background:new    ;}
	.st2{opacity:7.000000e-02;fill:url(#SVGID_00000042012008667849077970000012805614720634323855_);enable-background:new    ;}
	.st3{opacity:7.000000e-02;fill:url(#SVGID_00000021112055434668748430000001587615652708312764_);enable-background:new    ;}
	.st4{opacity:0.2;fill:url(#SVGID_00000013189175802777942030000009723466319442811541_);enable-background:new    ;}
	.st5{fill:#EC2615;}
	.st6{opacity:0.15;fill:#FEFEFE;enable-background:new    ;}
	.st7{opacity:0.2;fill:url(#SVGID_00000008143133042179430340000006100965922593482145_);enable-background:new    ;}
	.st8{fill:#83120D;}
	.st9{opacity:0.3;fill:url(#SVGID_00000118355421395500659570000011012615610547136152_);enable-background:new    ;}
	.st10{opacity:0.3;fill:url(#SVGID_00000101091663885827510140000007765947271723699844_);enable-background:new    ;}
	.st11{opacity:0.2;fill:url(#SVGID_00000180367871186725081520000000038966010587018674_);enable-background:new    ;}
	.st12{opacity:0.2;fill:url(#SVGID_00000155147530281085376670000017939936623458979974_);enable-background:new    ;}
</style>
<linearGradient id="SVGID_1_" gradientUnits="userSpaceOnUse" x1="33.6098" y1="308.213" x2="144.8322" y2="227.1013" gradientTransform="matrix(1 0 0 -1 0 406)">
	<stop  offset="0" style="stop-color:#FFFFFF"/>
	<stop  offset="1" style="stop-color:#FFFFFF;stop-opacity:0"/>
</linearGradient>
<path class="st0" d="M146.6,123.8c27.4-16,50-1,54,33.4c0.7,6-3.8,13.8-9.4,17.1l-89.3,52.2c-5.5,3.2-10.1,0.6-9.4-6.2
	C96.6,181.3,119.2,139.8,146.6,123.8z"/>
<linearGradient id="SVGID_00000157993985376405075460000003579664143597711520_" gradientUnits="userSpaceOnUse" x1="90.2814" y1="386.1005" x2="201.5035" y2="304.9891" gradientTransform="matrix(1 0 0 -1 0 406)">
	<stop  offset="0" style="stop-color:#FFFFFF"/>
	<stop  offset="1" style="stop-color:#FFFFFF;stop-opacity:0"/>
</linearGradient>
<path style="opacity:0.5;fill:url(#SVGID_00000157993985376405075460000003579664143597711520_);enable-background:new    ;" d="
	M116.1,79.1c0,23.8,13.8,35.1,30.7,25.1c17-9.9,30.7-37.2,30.7-61S163.8,8.1,146.8,18C129.8,28,116.1,55.3,116.1,79.1z"/>
<linearGradient id="SVGID_00000142896172173571681130000000897111138134789003_" gradientUnits="userSpaceOnUse" x1="16.0157" y1="322.5011" x2="127.2377" y2="241.389" gradientTransform="matrix(1 0 0 -1 0 406)">
	<stop  offset="0" style="stop-color:#FFFFFF"/>
	<stop  offset="1" style="stop-color:#FFFFFF;stop-opacity:0"/>
</linearGradient>
<path style="opacity:7.000000e-02;fill:url(#SVGID_00000142896172173571681130000000897111138134789003_);enable-background:new    ;" d="
	M129,109.6c27.4-16,50-1,54,33.4c0.7,6-3.8,13.8-9.4,17.1l-89.3,52.2c-5.5,3.2-10.1,0.6-9.4-6.2C79,167,101.6,125.5,129,109.6z"/>
<linearGradient id="SVGID_00000114035415003197565150000018101676464995591613_" gradientUnits="userSpaceOnUse" x1="90.274" y1="390.77" x2="201.4957" y2="309.6583" gradientTransform="matrix(1 0 0 -1 0 406)">
	<stop  offset="0" style="stop-color:#FFFFFF"/>
	<stop  offset="1" style="stop-color:#FFFFFF;stop-opacity:0"/>
</linearGradient>
<path style="opacity:7.000000e-02;fill:url(#SVGID_00000114035415003197565150000018101676464995591613_);enable-background:new    ;" d="
	M116.1,74.4c0,23.8,13.8,35.1,30.7,25.1s30.7-37.2,30.7-61c0-23.8-13.8-35.1-30.7-25.1C129.8,23.3,116.1,50.6,116.1,74.4z"/>
<linearGradient id="SVGID_00000049909897976451046720000000220323663973927558_" gradientUnits="userSpaceOnUse" x1="67.8378" y1="178.4209" x2="85.3031" y2="148.1699" gradientTransform="matrix(1 0 0 -1 0 406)">
	<stop  offset="0" style="stop-color:#FFFFFF"/>
	<stop  offset="1" style="stop-color:#FFFFFF;stop-opacity:0"/>
</linearGradient>
<path style="opacity:0.2;fill:url(#SVGID_00000049909897976451046720000000220323663973927558_);enable-background:new    ;" d="
	M39.3,246.7c0-1.6,0.9-3.1,2.2-3.9l68.4-39.5c3-1.7,6.7,0.4,6.7,3.9v32.6l-77.4,44.7V246.7z"/>
<g id="XMLID_00000087376809859166937920000017914227867429272459_">
	<g>
		<path class="st5" d="M109.8,216.9c0,3.3-2,7.2-4.4,8.5c-2.4,1.4-4.4-0.2-4.4-3.5c0-3.3,2-7.2,4.4-8.5
			C107.8,212.1,109.8,213.6,109.8,216.9z"/>
	</g>
	<g>
	</g>
</g>
<path class="st6" d="M96.9,220.5L73.6,234v4.8l23.3-13.5L96.9,220.5z"/>
<path class="st6" d="M96.9,230.3l-49.5,28.6v4.9l49.5-28.6V230.3z"/>
<linearGradient id="SVGID_00000101781400600944635160000004089214782152526495_" gradientUnits="userSpaceOnUse" x1="224.9785" y1="224.9927" x2="242.4355" y2="194.7567" gradientTransform="matrix(1 0 0 -1 0 406)">
	<stop  offset="0" style="stop-color:#FFFFFF"/>
	<stop  offset="1" style="stop-color:#FFFFFF;stop-opacity:0"/>
</linearGradient>
<path style="opacity:0.2;fill:url(#SVGID_00000101781400600944635160000004089214782152526495_);enable-background:new    ;" d="
	M196.5,200.1c0-1.6,0.9-3.1,2.2-3.9l68.4-39.5c3-1.7,6.7,0.4,6.7,3.9v32.6l-77.4,44.7V200.1z"/>
<g id="XMLID_00000019650073234562087070000007082063551498027170_">
	<g>
		<path class="st8" d="M266.9,170.3c0,3.3-2,7.1-4.4,8.5c-2.4,1.4-4.4-0.2-4.4-3.5s2-7.1,4.4-8.5C264.9,165.5,266.9,167,266.9,170.3
			z"/>
	</g>
	<g>
	</g>
</g>
<path class="st6" d="M254.1,174.2l-14,8.1v4.9l14-8.1V174.2z"/>
<path class="st6" d="M254,183.9l-49.5,28.6v4.9l49.5-28.6V183.9z"/>
<linearGradient id="SVGID_00000098215870692620152460000005181692156749226385_" gradientUnits="userSpaceOnUse" x1="83.6771" y1="161.451" x2="64.7157" y2="7.699" gradientTransform="matrix(1 0 0 -1 0 406)">
	<stop  offset="0" style="stop-color:#FFFFFF"/>
	<stop  offset="1" style="stop-color:#FFFFFF;stop-opacity:0"/>
</linearGradient>
<path style="opacity:0.3;fill:url(#SVGID_00000098215870692620152460000005181692156749226385_);enable-background:new    ;" d="
	M146.6,249.8c0-3.5-3.7-5.6-6.7-3.9L2.3,325.4c-1.4,0.8-2.2,2.3-2.2,3.9l0,73.8L133.6,326l11,3.6c1,0.3,2-0.4,2-1.4L146.6,249.8z"/>
<g id="XMLID_00000137097312588179286470000017731960773274328753_">
	<g>
		<path class="st5" d="M133.5,275.2c0,6.3-3.7,13.5-8.3,16.2c-4.6,2.7-8.3-0.3-8.3-6.6c0-6.3,3.8-13.5,8.3-16.2
			C129.8,266,133.5,268.9,133.5,275.2z"/>
	</g>
	<g>
	</g>
</g>
<path class="st6" d="M108.9,282.4L76.8,301v6.7l32.1-18.5V282.4z"/>
<path class="st6" d="M108.9,295.9L13,351.3v6.7l95.9-55.4V295.9z"/>
<path class="st6" d="M108.9,309.3l-75,43.3v6.7l75-43.3V309.3z"/>
<linearGradient id="SVGID_00000059311879960862779710000013052814204419468707_" gradientUnits="userSpaceOnUse" x1="198.0241" y1="172.1335" x2="273.7301" y2="112.8725" gradientTransform="matrix(1 0 0 -1 0 406)">
	<stop  offset="0" style="stop-color:#FFFFFF"/>
	<stop  offset="1" style="stop-color:#FFFFFF;stop-opacity:0"/>
</linearGradient>
<path style="opacity:0.3;fill:url(#SVGID_00000059311879960862779710000013052814204419468707_);enable-background:new    ;" d="
	M166.4,266.6c0-1.6,0.9-3.1,2.2-3.9l137.6-79.4c3-1.7,6.7,0.4,6.7,3.9l0,68.6L179.3,333l-10.2,15.1c-0.8,1.2-2.7,0.6-2.7-0.8
	L166.4,266.6z"/>
<g id="XMLID_00000061432677337828925650000015348984310458601883_">
	<g>
		<path class="st8" d="M196.2,272.4c0,6.3-3.7,13.5-8.3,16.2c-4.6,2.7-8.3-0.3-8.3-6.6c0-6.3,3.8-13.5,8.3-16.2
			C192.5,263.2,196.2,266.1,196.2,272.4z"/>
	</g>
	<g>
	</g>
</g>
<path class="st6" d="M204.1,260.9l32.1-18.5v6.7l-32.1,18.5V260.9z"/>
<path class="st6" d="M204.1,274.3l95.9-55.4v6.7L204.1,281L204.1,274.3z"/>
<path class="st6" d="M204.1,287.7l75-43.3v6.7l-75,43.3V287.7z"/>
<linearGradient id="SVGID_00000155866220109392348030000005737660581475241098_" gradientUnits="userSpaceOnUse" x1="242.88" y1="77.4266" x2="265.677" y2="59.4396" gradientTransform="matrix(1 0 0 -1 0 406)">
	<stop  offset="0" style="stop-color:#FFFFFF"/>
	<stop  offset="1" style="stop-color:#FFFFFF;stop-opacity:0"/>
</linearGradient>
<path style="opacity:0.2;fill:url(#SVGID_00000155866220109392348030000005737660581475241098_);enable-background:new    ;" d="
	M252,311.6c-2.6,1.5-4.7,5.1-4.7,8.2v13.3l-8.8,5.1c-2.6,1.5-4.7,5.1-4.7,8.1c0,3,2.1,4.2,4.7,2.7l8.8-5.1v13.3c0,3,2.1,4.2,4.7,2.7
	c2.6-1.5,4.7-5.1,4.7-8.1v-13.3l8.8-5.1c2.6-1.5,4.7-5.1,4.7-8.1c0-3-2.1-4.2-4.7-2.7l-8.8,5.1v-13.3
	C256.7,311.3,254.6,310.1,252,311.6z"/>
<linearGradient id="SVGID_00000041985867802632523990000012752811216007473559_" gradientUnits="userSpaceOnUse" x1="54.2102" y1="240.5352" x2="76.2931" y2="228.2282" gradientTransform="matrix(1 0 0 -1 0 406)">
	<stop  offset="0" style="stop-color:#FFFFFF"/>
	<stop  offset="1" style="stop-color:#FFFFFF;stop-opacity:0"/>
</linearGradient>
<path style="opacity:0.2;fill:url(#SVGID_00000041985867802632523990000012752811216007473559_);enable-background:new    ;" d="
	M62.8,141.5l-12.1,23.8c-1.7,3.3-1.4,6.5,0.6,7.3c2,0.8,5-1.3,6.6-4.5l0.1-0.3v26.4c0,3,2.1,4.2,4.7,2.7c2.6-1.5,4.7-5.1,4.7-8.1
	v-26.4l0.1,0.1c1.7,1.3,4.7,0,6.6-3.1c2-3.1,2.3-6.7,0.6-8L62.8,141.5z"/>
</svg>
